<?xml version="1.0" standalone="no"?>
<!DOCTYPE svg PUBLIC "-//W3C//DTD SVG 20010904//EN"
 "http://www.w3.org/TR/2001/REC-SVG-20010904/DTD/svg10.dtd">
<svg version="1.0" xmlns="http://www.w3.org/2000/svg"
 width="300.000000pt" height="300.000000pt" viewBox="0 0 300.000000 300.000000"
 preserveAspectRatio="xMidYMid meet">
<metadata>
Created by potrace 1.11, written by Peter Selinger 2001-2013
</metadata>
<g transform="translate(0.000000,300.000000) scale(0.100000,-0.100000)"
fill="#000000" stroke="none">
<path d="M0 2147 c0 -521 4 -857 9 -863 6 -5 44 -87 85 -182 93 -217 145 -307
222 -391 62 -67 144 -124 144 -100 0 7 -29 154 -65 328 -151 735 -205 1120
-235 1661 -5 102 -10 223 -9 270 l1 85 23 -166 c90 -638 228 -1127 380 -1340
21 -30 30 -50 24 -56 -6 -6 -4 -14 6 -23 18 -15 19 -32 3 -48 -9 -9 -16 -8
-29 4 -22 20 -34 2 -19 -27 15 -27 -2 -48 -23 -30 -19 15 -43 -9 -26 -26 17
-17 -7 -53 -33 -50 -32 3 -32 -19 1 -32 16 -7 39 -23 52 -37 19 -20 20 -24 6
-24 -30 0 -18 -27 15 -34 31 -6 78 -41 78 -58 0 -4 -8 -8 -18 -8 -23 0 -32 -8
-26 -25 4 -9 15 -10 39 -5 27 6 38 4 50 -10 15 -17 15 -19 -5 -25 -31 -10 -18
-31 16 -27 21 2 37 -5 54 -23 l23 -25 -21 0 c-13 0 -22 -6 -22 -15 0 -10 10
-15 33 -15 33 0 77 -23 77 -41 0 -5 -7 -9 -15 -9 -8 0 -15 -4 -15 -10 0 -5 13
-10 28 -10 17 0 37 -9 48 -21 19 -22 19 -22 -8 -15 -21 5 -28 3 -28 -8 0 -8
14 -17 30 -21 25 -6 30 -11 30 -36 0 -25 -3 -29 -19 -24 -30 9 -35 -13 -7 -27
30 -13 37 -58 10 -58 -12 0 -15 -6 -10 -25 7 -27 0 -30 -41 -19 -14 4 -23 14
-23 25 0 11 -7 19 -15 19 -8 0 -15 -7 -15 -15 0 -20 -20 -19 -36 2 -10 15 -15
16 -25 5 -19 -18 -39 -15 -39 8 0 13 -7 20 -20 20 -12 0 -20 -7 -20 -16 0 -11
-5 -14 -16 -10 -9 3 -20 6 -25 6 -5 0 -9 9 -9 20 0 11 -7 20 -15 20 -8 0 -15
-7 -15 -15 0 -10 -10 -15 -30 -15 -18 0 -33 6 -36 15 -7 17 -31 20 -36 4 -5
-15 -36 0 -43 22 -8 25 -35 25 -35 0 0 -15 -5 -18 -22 -13 -13 3 -26 10 -30
15 -4 7 -14 7 -28 1 -21 -9 -20 -11 24 -48 25 -20 44 -41 42 -45 -6 -10 48
-51 67 -51 24 0 57 -45 57 -78 0 -34 25 -46 36 -18 9 24 32 7 38 -30 7 -36 15
-41 34 -22 16 16 52 -17 52 -49 0 -14 6 -23 15 -23 8 0 15 5 15 12 0 6 11 1
25 -12 14 -13 25 -34 25 -48 0 -21 4 -24 25 -20 28 6 40 -5 50 -45 7 -25 35
-39 35 -17 0 23 19 8 25 -21 5 -20 11 -29 21 -25 10 4 14 -2 14 -19 0 -16 -6
-25 -15 -25 -8 0 -15 -4 -15 -10 0 -7 230 -10 670 -10 562 0 670 2 670 14 0 7
7 19 15 26 8 7 15 17 15 22 0 6 -7 8 -15 4 -11 -4 -15 2 -15 23 0 23 6 31 31
40 36 12 30 36 -7 27 -22 -6 -24 -3 -24 28 0 28 3 34 16 29 12 -4 15 1 12 23
-2 24 1 30 20 32 13 2 22 10 22 21 0 22 22 43 41 39 8 -2 14 4 14 13 0 18 23
49 36 49 5 0 9 -7 9 -15 0 -8 6 -12 14 -9 8 3 11 15 8 30 -3 15 2 32 13 44 16
18 20 19 35 5 21 -19 33 -9 18 15 -14 22 3 47 40 61 13 5 21 13 18 18 -3 4 3
16 14 26 18 16 20 16 26 1 3 -9 12 -16 20 -16 17 0 17 5 2 30 -11 17 -8 24 17
51 17 17 42 37 58 45 15 8 27 19 27 24 0 16 -26 11 -50 -10 -27 -24 -44 -26
-36 -5 3 9 0 15 -9 15 -8 0 -15 -5 -15 -10 0 -14 -46 -60 -60 -60 -5 0 -10 9
-10 20 0 11 -7 20 -15 20 -10 0 -15 -10 -15 -28 0 -21 -7 -32 -25 -40 -35 -16
-35 -16 -35 13 0 16 -6 25 -16 25 -13 0 -15 -7 -11 -30 6 -26 2 -32 -22 -45
-27 -13 -29 -13 -34 5 -7 28 -27 25 -27 -5 0 -17 -9 -29 -30 -40 -29 -15 -30
-15 -30 6 0 27 -24 20 -28 -9 -2 -12 -12 -27 -23 -32 -16 -9 -19 -7 -19 15 0
35 -19 31 -27 -5 -8 -43 -37 -57 -57 -28 -21 30 -20 35 9 42 16 4 22 11 19 21
-4 10 -12 12 -31 4 -30 -11 -48 -3 -33 16 14 17 4 36 -14 29 -8 -3 -21 5 -30
18 -10 13 -12 24 -6 26 18 6 10 31 -11 34 -12 2 -29 14 -38 27 -15 24 -15 24
8 12 28 -15 39 -7 24 18 -10 15 -8 22 6 35 10 9 25 14 34 11 18 -8 34 14 18
25 -17 10 14 34 35 26 23 -9 37 3 23 20 -18 22 16 56 47 48 18 -5 24 -2 24 10
0 9 -5 16 -12 16 -6 0 -1 11 12 25 18 20 26 22 37 13 11 -9 16 -9 23 2 6 9 5
17 -2 21 -19 12 11 41 35 33 16 -5 19 -3 14 14 -6 26 15 46 41 38 21 -7 40 20
19 27 -9 3 -8 8 2 21 7 9 15 31 16 49 1 17 4 38 6 46 7 23 -20 24 -29 1 -8
-20 -9 -20 -24 -3 -9 10 -18 38 -20 62 -3 45 -28 72 -28 31 0 -12 -4 -18 -10
-15 -5 3 -10 37 -10 76 0 55 -3 69 -15 69 -11 0 -15 -11 -15 -42 l0 -42 -22
22 c-17 16 -24 38 -28 80 -5 60 -22 75 -30 27 -4 -24 -7 -26 -17 -13 -9 10
-10 24 -3 49 14 47 12 69 -4 69 -7 0 -16 -14 -20 -32 -6 -29 -8 -31 -22 -16
-13 13 -14 22 -4 57 6 23 8 46 5 51 -11 18 -24 11 -31 -17 l-7 -26 -19 38
c-20 38 -15 54 20 55 6 0 12 7 12 15 0 17 -23 20 -49 6 -15 -8 -21 -3 -35 27
l-18 37 21 -19 c17 -16 24 -17 34 -7 9 9 7 16 -11 30 -21 15 -22 20 -11 44 10
22 15 25 31 16 30 -16 45 5 19 23 -26 18 -18 52 9 43 24 -8 38 15 17 27 -9 5
-14 15 -11 23 5 11 11 12 26 4 30 -16 46 5 18 24 -18 13 -19 18 -9 41 9 18 18
25 30 21 25 -8 36 15 15 31 -19 14 -17 18 39 58 16 12 18 17 8 27 -20 20 -15
60 9 86 16 17 19 26 10 35 -8 8 -15 8 -27 -2 -13 -11 -15 -9 -15 12 0 14 9 37
20 51 17 21 18 27 6 36 -11 10 -17 8 -25 -6 -9 -15 -10 -13 -11 13 0 36 35 89
43 64 3 -8 12 -60 21 -115 9 -55 32 -163 51 -241 33 -135 209 -732 219 -741
10 -10 127 375 166 547 73 326 104 420 178 546 49 84 176 257 168 229 -3 -11
-21 -72 -40 -135 -167 -553 -227 -843 -205 -995 5 -37 27 -109 51 -163 78
-184 104 -338 95 -577 -9 -261 -94 -470 -291 -713 l-66 -82 245 0 245 0 0
1500 0 1500 -419 0 -418 0 -7 -37 c-3 -21 -9 -77 -13 -125 -4 -61 -10 -88 -19
-88 -7 0 -19 -3 -28 -6 -10 -4 -16 -1 -16 9 0 8 7 17 15 21 8 3 15 13 15 22 0
10 -5 14 -14 11 -23 -9 -25 35 -3 60 20 23 14 48 -9 39 -24 -9 -16 30 12 63
23 28 24 31 7 31 -10 0 -24 -5 -31 -12 -9 -9 -12 -9 -12 0 0 17 -136 17 -143
0 -4 -10 -6 -10 -6 0 -1 6 -10 12 -20 12 -17 0 -18 -4 -10 -32 7 -25 5 -42 -8
-71 l-16 -38 -23 28 c-16 20 -26 25 -33 17 -8 -7 -4 -20 13 -43 21 -28 23 -37
13 -58 l-11 -24 -17 22 c-25 34 -42 15 -22 -26 14 -29 14 -38 3 -65 l-13 -32
-14 26 c-8 16 -19 23 -28 20 -13 -5 -13 -9 0 -34 8 -16 15 -38 15 -49 0 -33
-20 -34 -31 -2 -6 17 -17 31 -25 31 -18 0 -18 -11 2 -60 16 -40 13 -90 -6 -90
-6 0 -10 5 -10 10 0 6 -7 10 -15 10 -18 0 -19 -14 -4 -41 5 -11 7 -29 4 -39
-5 -16 -12 -19 -32 -14 -23 6 -25 5 -19 -12 15 -36 16 -49 6 -64 -8 -13 -13
-10 -33 14 -36 45 -53 24 -20 -25 23 -35 25 -43 14 -66 l-13 -27 -17 23 c-25
32 -36 11 -16 -29 14 -26 14 -33 1 -58 -10 -20 -11 -33 -4 -46 9 -15 7 -17
-11 -11 -15 4 -21 2 -21 -9 0 -8 13 -17 29 -21 23 -5 33 -15 43 -43 7 -20 13
-42 13 -48 0 -6 6 -19 14 -28 16 -19 14 -21 -14 -30 -16 -5 -25 2 -39 29 -12
22 -23 32 -29 26 -5 -5 -5 -17 2 -29 17 -31 15 -33 -36 -30 -41 3 -48 6 -51
26 -2 13 -9 21 -15 19 -7 -2 -11 -14 -9 -25 3 -19 -2 -22 -27 -22 -34 0 -36 2
-20 32 21 38 -7 42 -29 4 -16 -26 -28 -36 -47 -36 -25 0 -31 13 -19 44 3 9 12
16 20 16 17 0 19 27 3 32 -19 6 0 48 22 48 10 0 19 5 19 10 0 6 -7 10 -15 10
-8 0 -15 9 -15 20 0 21 33 60 50 60 5 0 7 7 4 15 -4 11 -11 12 -24 5 -39 -21
-42 42 -3 82 30 31 24 51 -7 23 -17 -16 -20 -16 -26 -2 -12 31 1 50 44 65 66
22 54 43 -14 23 -31 -9 -32 -8 -38 31 -4 23 -5 42 -4 43 51 34 68 49 68 61 0
19 -7 18 -40 -6 l-28 -20 -7 27 c-6 27 -3 31 48 59 23 12 26 18 17 30 -11 12
-16 11 -41 -7 -20 -14 -29 -16 -29 -7 0 7 -3 23 -6 35 -5 18 1 27 30 44 20 11
36 27 36 35 0 18 -4 18 -40 -1 -39 -20 -41 1 -3 30 34 28 23 54 -13 30 -23
-15 -24 -14 -24 8 0 13 9 32 20 42 21 19 27 45 11 45 -6 0 -13 -4 -16 -10 -3
-5 -10 -10 -16 -10 -15 0 -10 33 11 65 14 21 16 31 7 37 -6 4 -17 2 -24 -4
-10 -8 -13 -5 -13 11 0 20 -5 21 -80 21 -65 0 -78 -3 -74 -14 3 -8 1 -23 -5
-33 -10 -17 -11 -16 -17 5 -3 12 -13 22 -21 22 -15 0 -15 -2 4 -78 5 -22 4
-23 -15 -11 -28 18 -34 9 -21 -29 7 -20 7 -37 1 -48 -9 -16 -10 -15 -16 4 -4
12 -14 22 -22 22 -16 0 -17 -2 -4 -54 7 -31 5 -47 -9 -75 -17 -33 -19 -33 -25
-13 -4 12 -14 22 -22 22 -17 0 -17 -4 -4 -50 10 -36 5 -70 -11 -70 -5 0 -9 7
-9 15 0 8 -7 15 -15 15 -13 0 -15 -9 -9 -49 4 -31 2 -56 -6 -71 l-12 -23 -12
21 c-7 14 -16 18 -24 13 -11 -7 -11 -14 1 -43 12 -29 12 -39 2 -59 -8 -13 -16
-23 -19 -21 -18 7 -27 0 -21 -19 4 -12 0 -37 -10 -60 -15 -31 -21 -37 -35 -29
-16 9 -17 15 -3 87 20 112 78 327 129 482 24 74 44 136 44 138 0 2 -198 3
-440 3 l-440 0 0 -853z m2118 541 c-23 -32 -23 -33 -26 -9 -4 24 11 41 36 41
9 0 6 -11 -10 -32z m32 -75 c0 -13 -4 -22 -9 -20 -5 1 -17 -7 -25 -18 -15 -19
-15 -19 -16 8 0 34 31 81 42 63 4 -6 8 -21 8 -33z m-14 -134 c-20 -25 -21 -25
-25 -5 -1 11 5 36 15 55 l19 34 6 -29 c3 -20 -1 -37 -15 -55z m-1426 -227 c0
-5 -7 -17 -15 -28 -14 -18 -14 -18 -15 9 0 17 5 27 15 27 8 0 15 -4 15 -8z
m-23 -153 c-12 -3 -23 -5 -24 -4 -1 0 0 18 4 39 l6 39 18 -34 c17 -33 17 -34
-4 -40z m30 -39 c7 0 20 -14 28 -31 15 -28 15 -30 -1 -27 -33 6 -26 -22 9 -37
39 -16 51 -36 34 -55 -9 -10 -9 -14 2 -17 35 -13 69 -73 41 -73 -5 0 -10 -7
-10 -15 0 -9 9 -15 25 -15 14 0 25 -2 25 -4 0 -2 3 -11 6 -19 4 -11 -1 -13
-20 -10 -19 4 -26 1 -26 -11 0 -9 7 -16 15 -16 16 0 19 -9 9 -35 -6 -14 -9
-14 -30 0 -31 20 -45 -2 -16 -26 14 -11 20 -23 16 -33 -5 -13 -9 -14 -21 -5
-11 9 -17 9 -26 0 -9 -10 -8 -15 6 -25 10 -8 15 -20 11 -30 -7 -19 -9 -19 -34
-6 -26 14 -39 -9 -15 -26 15 -11 16 -16 5 -29 -7 -8 -21 -15 -32 -15 -15 0
-19 -5 -15 -20 8 -30 -12 -35 -37 -11 -20 21 -21 29 -20 274 0 139 4 269 8
290 6 34 10 38 29 33 12 -3 28 -6 34 -6z"/>
<path d="M1 443 l-1 -443 246 0 c233 0 246 1 233 18 -8 9 -60 72 -116 139
-136 162 -182 225 -230 319 -52 100 -89 204 -113 319 l-19 90 0 -442z"/>
</g>
</svg>
